<svg width="287" height="57" viewBox="0 0 287 57" fill="none" xmlns="http://www.w3.org/2000/svg">
<path d="M86.3263 19.6499H87.1463C87.1996 19.8632 87.2463 20.1232 87.2863 20.4299C87.3396 20.7232 87.3796 21.0432 87.4063 21.3899C87.4463 21.7232 87.473 22.0565 87.4863 22.3899C87.4996 22.7232 87.5063 23.0232 87.5063 23.2899C87.0396 23.5832 86.453 23.7899 85.7463 23.9099C85.053 24.0299 84.3396 24.0899 83.6063 24.0899C82.4996 24.0899 81.493 23.9565 80.5863 23.6899C79.693 23.4099 78.9263 22.9765 78.2863 22.3899C77.6596 21.7899 77.173 21.0365 76.8263 20.1299C76.4796 19.2099 76.3063 18.1099 76.3063 16.8299C76.3063 15.5632 76.493 14.4765 76.8663 13.5699C77.253 12.6499 77.7663 11.8965 78.4063 11.3099C79.0463 10.7232 79.7863 10.2965 80.6263 10.0299C81.4796 9.74985 82.373 9.60985 83.3063 9.60985C84.1863 9.60985 84.9796 9.67652 85.6863 9.80985C86.4063 9.92985 86.993 10.0965 87.4463 10.3099C87.4463 10.5232 87.433 10.7965 87.4063 11.1299C87.393 11.4632 87.3596 11.8165 87.3063 12.1899C87.2663 12.5499 87.213 12.9099 87.1463 13.2699C87.093 13.6165 87.0396 13.9099 86.9863 14.1499H86.1463L85.0463 11.1299C84.9263 11.0632 84.733 11.0099 84.4663 10.9699C84.1996 10.9299 83.9263 10.9099 83.6463 10.9099C83.0996 10.9099 82.5863 11.0232 82.1063 11.2499C81.6263 11.4632 81.1996 11.8099 80.8263 12.2899C80.453 12.7699 80.1596 13.3899 79.9463 14.1499C79.733 14.8965 79.6263 15.7965 79.6263 16.8499C79.6263 18.7565 80.0063 20.2232 80.7663 21.2499C81.5263 22.2765 82.5596 22.7899 83.8663 22.7899C84.2396 22.7899 84.553 22.7632 84.8063 22.7099C85.073 22.6432 85.253 22.5565 85.3463 22.4499L86.3263 19.6499ZM97.9732 20.9499C97.9732 21.2432 97.9732 21.4965 97.9732 21.7099C97.9865 21.9232 98.0065 22.1499 98.0332 22.3899L99.4132 22.5899V23.2899C99.2532 23.3699 99.0332 23.4499 98.7532 23.5299C98.4865 23.6099 98.1998 23.6899 97.8932 23.7699C97.5998 23.8365 97.3065 23.8899 97.0132 23.9299C96.7198 23.9832 96.4598 24.0232 96.2332 24.0499H95.5532C95.4198 23.7432 95.3398 23.4365 95.3132 23.1299C95.2865 22.8232 95.2665 22.4499 95.2532 22.0099H95.1532C95.0865 22.2765 94.9732 22.5365 94.8132 22.7899C94.6532 23.0299 94.4465 23.2499 94.1932 23.4499C93.9532 23.6365 93.6665 23.7899 93.3332 23.9099C92.9998 24.0299 92.6265 24.0899 92.2132 24.0899C91.7732 24.0899 91.3665 24.0232 90.9932 23.8899C90.6198 23.7565 90.2932 23.5699 90.0132 23.3299C89.7332 23.0899 89.5132 22.8032 89.3532 22.4699C89.1932 22.1232 89.1132 21.7365 89.1132 21.3099C89.1132 20.7099 89.2265 20.2165 89.4532 19.8299C89.6798 19.4432 90.0332 19.1299 90.5132 18.8899C91.0065 18.6365 91.6332 18.4499 92.3932 18.3299C93.1665 18.2099 94.0998 18.1232 95.1932 18.0699C95.2998 16.9232 95.2532 16.0832 95.0532 15.5499C94.8532 15.0165 94.4198 14.7499 93.7532 14.7499C93.3398 14.7499 92.9598 14.8165 92.6132 14.9499L91.6732 17.3499H90.7932C90.6865 17.1899 90.5798 17.0099 90.4732 16.8099C90.3798 16.5965 90.2865 16.3765 90.1932 16.1499C90.1132 15.9099 90.0398 15.6699 89.9732 15.4299C89.9198 15.1899 89.8798 14.9565 89.8532 14.7299C90.3598 14.3832 91.0132 14.1099 91.8132 13.9099C92.6132 13.7099 93.4598 13.6099 94.3532 13.6099C95.1132 13.6099 95.7332 13.6965 96.2132 13.8699C96.6932 14.0299 97.0665 14.2565 97.3332 14.5499C97.6132 14.8299 97.8065 15.1632 97.9132 15.5499C98.0198 15.9365 98.0732 16.3499 98.0732 16.7899C98.0732 17.5899 98.0532 18.3165 98.0132 18.9699C97.9865 19.6099 97.9732 20.2699 97.9732 20.9499ZM93.4732 22.4899C93.7532 22.4899 93.9932 22.4365 94.1932 22.3299C94.3932 22.2232 94.5598 22.0965 94.6932 21.9499C94.8398 21.8032 94.9465 21.6432 95.0132 21.4699C95.0932 21.2965 95.1532 21.1432 95.1932 21.0099V19.0099C94.5665 19.0232 94.0532 19.0632 93.6532 19.1299C93.2532 19.1965 92.9398 19.3099 92.7132 19.4699C92.4865 19.6165 92.3265 19.8099 92.2332 20.0499C92.1532 20.2765 92.1132 20.5565 92.1132 20.8899C92.1132 21.3965 92.2332 21.7899 92.4732 22.0699C92.7132 22.3499 93.0465 22.4899 93.4732 22.4899ZM110.326 27.8499H104.886V27.0699C105.259 26.8565 105.699 26.6965 106.206 26.5899V23.4299C106.046 23.6299 105.799 23.7899 105.466 23.9099C105.133 24.0299 104.799 24.0899 104.466 24.0899C103.853 24.0899 103.286 23.9965 102.766 23.8099C102.259 23.6099 101.819 23.3099 101.446 22.9099C101.073 22.5099 100.779 22.0032 100.566 21.3899C100.366 20.7765 100.266 20.0499 100.266 19.2099C100.266 18.2499 100.373 17.4232 100.586 16.7299C100.799 16.0232 101.099 15.4432 101.486 14.9899C101.873 14.5232 102.333 14.1765 102.866 13.9499C103.413 13.7232 104.019 13.6099 104.686 13.6099C105.019 13.6099 105.326 13.6632 105.606 13.7699C105.886 13.8632 106.086 13.9899 106.206 14.1499V10.4699L104.686 10.3099V9.52985C104.873 9.44985 105.126 9.36985 105.446 9.28985C105.766 9.20985 106.099 9.13652 106.446 9.06985C106.806 9.00319 107.153 8.94985 107.486 8.90985C107.819 8.85652 108.099 8.82319 108.326 8.80985H109.006V14.2699C109.193 14.0699 109.453 13.9099 109.786 13.7899C110.133 13.6699 110.493 13.6099 110.866 13.6099C111.466 13.6099 112.013 13.7032 112.506 13.8899C113.013 14.0765 113.446 14.3632 113.806 14.7499C114.166 15.1365 114.446 15.6232 114.646 16.2099C114.846 16.7832 114.946 17.4632 114.946 18.2499C114.946 19.2632 114.833 20.1365 114.606 20.8699C114.393 21.6032 114.093 22.2099 113.706 22.6899C113.319 23.1699 112.859 23.5232 112.326 23.7499C111.793 23.9765 111.219 24.0899 110.606 24.0899C110.313 24.0899 110.013 24.0432 109.706 23.9499C109.399 23.8699 109.166 23.7432 109.006 23.5699V26.5899C109.499 26.6699 109.939 26.8299 110.326 27.0699V27.8499ZM105.166 22.8299C105.393 22.8299 105.593 22.8032 105.766 22.7499C105.939 22.6832 106.119 22.5565 106.306 22.3699V15.2099C106.146 15.1032 105.979 15.0232 105.806 14.9699C105.633 14.9032 105.413 14.8699 105.146 14.8699C104.879 14.8699 104.633 14.9299 104.406 15.0499C104.179 15.1699 103.979 15.3699 103.806 15.6499C103.633 15.9165 103.499 16.2765 103.406 16.7299C103.313 17.1832 103.266 17.7499 103.266 18.4299C103.266 19.3365 103.313 20.0765 103.406 20.6499C103.499 21.2099 103.626 21.6565 103.786 21.9899C103.959 22.3099 104.159 22.5299 104.386 22.6499C104.626 22.7699 104.886 22.8299 105.166 22.8299ZM110.026 14.8699C109.799 14.8699 109.599 14.9032 109.426 14.9699C109.266 15.0232 109.093 15.1299 108.906 15.2899V22.4699C109.066 22.6032 109.233 22.6965 109.406 22.7499C109.579 22.8032 109.799 22.8299 110.066 22.8299C110.306 22.8299 110.539 22.7699 110.766 22.6499C110.993 22.5299 111.193 22.3232 111.366 22.0299C111.539 21.7232 111.679 21.3232 111.786 20.8299C111.893 20.3365 111.946 19.7099 111.946 18.9499C111.946 18.1365 111.899 17.4632 111.806 16.9299C111.726 16.3965 111.606 15.9832 111.446 15.6899C111.286 15.3832 111.086 15.1699 110.846 15.0499C110.606 14.9299 110.333 14.8699 110.026 14.8699ZM124.926 20.9499C124.926 21.2432 124.926 21.4965 124.926 21.7099C124.94 21.9232 124.96 22.1499 124.986 22.3899L126.366 22.5899V23.2899C126.206 23.3699 125.986 23.4499 125.706 23.5299C125.44 23.6099 125.153 23.6899 124.846 23.7699C124.553 23.8365 124.26 23.8899 123.966 23.9299C123.673 23.9832 123.413 24.0232 123.186 24.0499H122.506C122.373 23.7432 122.293 23.4365 122.266 23.1299C122.24 22.8232 122.22 22.4499 122.206 22.0099H122.106C122.04 22.2765 121.926 22.5365 121.766 22.7899C121.606 23.0299 121.4 23.2499 121.146 23.4499C120.906 23.6365 120.62 23.7899 120.286 23.9099C119.953 24.0299 119.58 24.0899 119.166 24.0899C118.726 24.0899 118.32 24.0232 117.946 23.8899C117.573 23.7565 117.246 23.5699 116.966 23.3299C116.686 23.0899 116.466 22.8032 116.306 22.4699C116.146 22.1232 116.066 21.7365 116.066 21.3099C116.066 20.7099 116.18 20.2165 116.406 19.8299C116.633 19.4432 116.986 19.1299 117.466 18.8899C117.96 18.6365 118.586 18.4499 119.346 18.3299C120.12 18.2099 121.053 18.1232 122.146 18.0699C122.253 16.9232 122.206 16.0832 122.006 15.5499C121.806 15.0165 121.373 14.7499 120.706 14.7499C120.293 14.7499 119.913 14.8165 119.566 14.9499L118.626 17.3499H117.746C117.64 17.1899 117.533 17.0099 117.426 16.8099C117.333 16.5965 117.24 16.3765 117.146 16.1499C117.066 15.9099 116.993 15.6699 116.926 15.4299C116.873 15.1899 116.833 14.9565 116.806 14.7299C117.313 14.3832 117.966 14.1099 118.766 13.9099C119.566 13.7099 120.413 13.6099 121.306 13.6099C122.066 13.6099 122.686 13.6965 123.166 13.8699C123.646 14.0299 124.02 14.2565 124.286 14.5499C124.566 14.8299 124.76 15.1632 124.866 15.5499C124.973 15.9365 125.026 16.3499 125.026 16.7899C125.026 17.5899 125.006 18.3165 124.966 18.9699C124.94 19.6099 124.926 20.2699 124.926 20.9499ZM120.426 22.4899C120.706 22.4899 120.946 22.4365 121.146 22.3299C121.346 22.2232 121.513 22.0965 121.646 21.9499C121.793 21.8032 121.9 21.6432 121.966 21.4699C122.046 21.2965 122.106 21.1432 122.146 21.0099V19.0099C121.52 19.0232 121.006 19.0632 120.606 19.1299C120.206 19.1965 119.893 19.3099 119.666 19.4699C119.44 19.6165 119.28 19.8099 119.186 20.0499C119.106 20.2765 119.066 20.5565 119.066 20.8899C119.066 21.3965 119.186 21.7899 119.426 22.0699C119.666 22.3499 120 22.4899 120.426 22.4899ZM132.599 27.8499H127.079V27.0699C127.532 26.8565 127.972 26.6965 128.399 26.5899V15.2699L127.079 15.1099V14.3299C127.292 14.2365 127.552 14.1499 127.859 14.0699C128.179 13.9899 128.506 13.9232 128.839 13.8699C129.172 13.8032 129.492 13.7499 129.799 13.7099C130.119 13.6699 130.386 13.6365 130.599 13.6099H131.279V15.8499H131.299C131.526 15.2099 131.879 14.6765 132.359 14.2499C132.852 13.8232 133.532 13.6099 134.399 13.6099C134.986 13.6099 135.512 13.7099 135.979 13.9099C136.459 14.0965 136.859 14.3965 137.179 14.8099C137.512 15.2099 137.766 15.7299 137.939 16.3699C138.126 16.9965 138.219 17.7499 138.219 18.6299C138.219 19.4699 138.099 20.2299 137.859 20.9099C137.632 21.5899 137.299 22.1632 136.859 22.6299C136.432 23.0965 135.906 23.4565 135.279 23.7099C134.666 23.9632 133.966 24.0899 133.179 24.0899C132.726 24.0899 132.366 24.0565 132.099 23.9899C131.846 23.9365 131.572 23.8365 131.279 23.6899V26.5899C131.492 26.6165 131.706 26.6632 131.919 26.7299C132.132 26.8099 132.359 26.9232 132.599 27.0699V27.8499ZM133.239 15.2099C132.786 15.2099 132.379 15.3699 132.019 15.6899C131.672 16.0099 131.426 16.5032 131.279 17.1699V22.4899C131.492 22.6499 131.719 22.7699 131.959 22.8499C132.199 22.9165 132.512 22.9499 132.899 22.9499C133.659 22.9499 134.219 22.5832 134.579 21.8499C134.939 21.1165 135.119 20.0432 135.119 18.6299C135.119 17.5365 134.979 16.6965 134.699 16.1099C134.432 15.5099 133.946 15.2099 133.239 15.2099ZM139.427 13.8499H144.747V14.6299C144.6 14.7099 144.427 14.7899 144.227 14.8699C144.04 14.9499 143.813 15.0299 143.547 15.1099V19.6099L143.327 21.4699H143.427L144.207 19.9699L147.867 13.8499H151.647V14.6299C151.22 14.8699 150.78 15.0299 150.327 15.1099V22.5899C150.58 22.6565 150.82 22.7299 151.047 22.8099C151.273 22.8765 151.473 22.9632 151.647 23.0699V23.8499H146.327V23.0699C146.7 22.8565 147.1 22.6965 147.527 22.5899V17.8699L147.727 16.2899H147.627L146.867 17.7899L143.247 23.8499H139.427V23.0699C139.653 22.9632 139.873 22.8765 140.087 22.8099C140.3 22.7299 140.52 22.6565 140.747 22.5899V15.1099C140.227 15.0299 139.787 14.8699 139.427 14.6299V13.8499ZM167.716 23.8499H160.836V23.0899C161.103 22.9832 161.403 22.8765 161.736 22.7699C162.083 22.6499 162.429 22.5632 162.776 22.5099V11.1499H160.456L159.176 14.5699H158.356C158.303 14.3032 158.249 13.9632 158.196 13.5499C158.143 13.1365 158.096 12.7099 158.056 12.2699C158.016 11.8299 157.983 11.3965 157.956 10.9699C157.929 10.5299 157.916 10.1565 157.916 9.84985H170.656C170.656 10.1699 170.643 10.5432 170.616 10.9699C170.589 11.3965 170.556 11.8299 170.516 12.2699C170.476 12.7099 170.429 13.1365 170.376 13.5499C170.323 13.9499 170.269 14.2899 170.216 14.5699H169.376L168.096 11.1499H165.776V22.5099C166.123 22.5765 166.463 22.6565 166.796 22.7499C167.143 22.8432 167.449 22.9565 167.716 23.0899V23.8499ZM181.336 11.1899C181.016 11.1232 180.736 11.0432 180.496 10.9499C180.256 10.8432 180.023 10.7299 179.796 10.6099V9.84985H184.636V10.6099C184.489 10.7165 184.289 10.8232 184.036 10.9299C183.796 11.0232 183.523 11.1099 183.216 11.1899L179.396 19.8299C178.756 21.2965 178.089 22.3899 177.396 23.1099C176.703 23.8165 175.963 24.0965 175.176 23.9499C175.069 23.8432 174.956 23.6832 174.836 23.4699C174.729 23.2432 174.623 23.0099 174.516 22.7699C174.423 22.5165 174.343 22.2765 174.276 22.0499C174.209 21.8099 174.169 21.6099 174.156 21.4499L174.716 20.6499L177.096 21.3899C177.203 21.2699 177.303 21.1232 177.396 20.9499C177.489 20.7765 177.576 20.5832 177.656 20.3699L172.336 11.1899C172.083 11.1232 171.836 11.0432 171.596 10.9499C171.369 10.8432 171.156 10.7299 170.956 10.6099V9.84985H177.196V10.6099C176.796 10.8499 176.289 11.0432 175.676 11.1899L178.496 16.6099L178.916 17.8899H178.956L179.356 16.5699L181.336 11.1899ZM189.668 22.5099C190.028 22.5632 190.381 22.6432 190.728 22.7499C191.088 22.8432 191.408 22.9565 191.688 23.0899V23.8499H185.028V23.0899C185.281 22.9432 185.548 22.8232 185.828 22.7299C186.121 22.6365 186.401 22.5632 186.668 22.5099V11.1899C186.361 11.1365 186.068 11.0632 185.788 10.9699C185.508 10.8632 185.255 10.7432 185.028 10.6099V9.84985H187.548C188.081 9.84985 188.688 9.82319 189.368 9.76985C190.061 9.71652 190.695 9.68985 191.268 9.68985C191.975 9.68985 192.661 9.76319 193.328 9.90985C194.008 10.0432 194.608 10.2765 195.128 10.6099C195.661 10.9432 196.088 11.3899 196.408 11.9499C196.728 12.4965 196.888 13.1832 196.888 14.0099C196.888 14.7965 196.728 15.4765 196.408 16.0499C196.101 16.6232 195.688 17.0965 195.168 17.4699C194.648 17.8432 194.048 18.1232 193.368 18.3099C192.688 18.4832 191.988 18.5699 191.268 18.5699C191.201 18.5699 191.095 18.5699 190.948 18.5699C190.801 18.5699 190.641 18.5699 190.468 18.5699C190.308 18.5565 190.148 18.5499 189.988 18.5499C189.841 18.5365 189.735 18.5232 189.668 18.5099V22.5099ZM190.748 10.9899C190.481 10.9899 190.268 11.0032 190.108 11.0299C189.961 11.0432 189.815 11.0699 189.668 11.1099V17.1899C189.788 17.2299 189.968 17.2565 190.208 17.2699C190.448 17.2699 190.641 17.2699 190.788 17.2699C191.148 17.2699 191.495 17.2099 191.828 17.0899C192.161 16.9699 192.455 16.7832 192.708 16.5299C192.975 16.2765 193.188 15.9499 193.348 15.5499C193.508 15.1499 193.588 14.6699 193.588 14.1099C193.588 13.0432 193.328 12.2565 192.808 11.7499C192.288 11.2432 191.601 10.9899 190.748 10.9899ZM203.841 23.8499H197.821V23.0899C198.074 22.9565 198.341 22.8365 198.621 22.7299C198.901 22.6232 199.181 22.5499 199.461 22.5099V11.1899C199.194 11.1232 198.914 11.0499 198.621 10.9699C198.328 10.8765 198.061 10.7565 197.821 10.6099V9.84985H203.841V10.6099C203.641 10.7299 203.414 10.8432 203.161 10.9499C202.908 11.0565 202.634 11.1365 202.341 11.1899V18.7899L202.141 20.3499L203.121 18.7099L208.161 11.6699V11.1899C207.534 11.0432 207.008 10.8499 206.581 10.6099V9.84985H212.601V10.6099C212.374 10.7565 212.114 10.8765 211.821 10.9699C211.541 11.0499 211.254 11.1232 210.961 11.1899V22.5099C211.268 22.5632 211.554 22.6432 211.821 22.7499C212.101 22.8432 212.361 22.9565 212.601 23.0899V23.8499H206.581V23.0899C206.768 22.9965 206.988 22.8965 207.241 22.7899C207.508 22.6699 207.788 22.5765 208.081 22.5099V14.9299L208.281 13.3499L207.381 14.9299L202.261 22.0699V22.5099C202.568 22.5765 202.854 22.6632 203.121 22.7699C203.388 22.8765 203.628 22.9832 203.841 23.0899V23.8499ZM223.807 19.6499H224.627C224.68 19.8632 224.727 20.1232 224.767 20.4299C224.82 20.7232 224.86 21.0432 224.887 21.3899C224.927 21.7232 224.953 22.0565 224.967 22.3899C224.98 22.7232 224.987 23.0232 224.987 23.2899C224.52 23.5832 223.933 23.7899 223.227 23.9099C222.533 24.0299 221.82 24.0899 221.087 24.0899C219.98 24.0899 218.973 23.9565 218.067 23.6899C217.173 23.4099 216.407 22.9765 215.767 22.3899C215.14 21.7899 214.653 21.0365 214.307 20.1299C213.96 19.2099 213.787 18.1099 213.787 16.8299C213.787 15.5632 213.973 14.4765 214.347 13.5699C214.733 12.6499 215.247 11.8965 215.887 11.3099C216.527 10.7232 217.267 10.2965 218.107 10.0299C218.96 9.74985 219.853 9.60985 220.787 9.60985C221.667 9.60985 222.46 9.67652 223.167 9.80985C223.887 9.92985 224.473 10.0965 224.927 10.3099C224.927 10.5232 224.913 10.7965 224.887 11.1299C224.873 11.4632 224.84 11.8165 224.787 12.1899C224.747 12.5499 224.693 12.9099 224.627 13.2699C224.573 13.6165 224.52 13.9099 224.467 14.1499H223.627L222.527 11.1299C222.407 11.0632 222.213 11.0099 221.947 10.9699C221.68 10.9299 221.407 10.9099 221.127 10.9099C220.58 10.9099 220.067 11.0232 219.587 11.2499C219.107 11.4632 218.68 11.8099 218.307 12.2899C217.933 12.7699 217.64 13.3899 217.427 14.1499C217.213 14.8965 217.107 15.7965 217.107 16.8499C217.107 18.7565 217.487 20.2232 218.247 21.2499C219.007 22.2765 220.04 22.7899 221.347 22.7899C221.72 22.7899 222.033 22.7632 222.287 22.7099C222.553 22.6432 222.733 22.5565 222.827 22.4499L223.807 19.6499ZM235.607 23.8499H228.727V23.0899C228.993 22.9832 229.293 22.8765 229.627 22.7699C229.973 22.6499 230.32 22.5632 230.667 22.5099V11.1499H228.347L227.067 14.5699H226.247C226.193 14.3032 226.14 13.9632 226.087 13.5499C226.033 13.1365 225.987 12.7099 225.947 12.2699C225.907 11.8299 225.873 11.3965 225.847 10.9699C225.82 10.5299 225.807 10.1565 225.807 9.84985H238.547C238.547 10.1699 238.533 10.5432 238.507 10.9699C238.48 11.3965 238.447 11.8299 238.407 12.2699C238.367 12.7099 238.32 13.1365 238.267 13.5499C238.213 13.9499 238.16 14.2899 238.107 14.5699H237.267L235.987 11.1499H233.667V22.5099C234.013 22.5765 234.353 22.6565 234.687 22.7499C235.033 22.8432 235.34 22.9565 235.607 23.0899V23.8499ZM245.267 23.8499H239.247V23.0899C239.5 22.9565 239.767 22.8365 240.047 22.7299C240.327 22.6232 240.607 22.5499 240.887 22.5099V11.1899C240.62 11.1232 240.34 11.0499 240.047 10.9699C239.753 10.8765 239.487 10.7565 239.247 10.6099V9.84985H245.267V10.6099C245.067 10.7299 244.84 10.8432 244.587 10.9499C244.333 11.0565 244.06 11.1365 243.767 11.1899V18.7899L243.567 20.3499L244.547 18.7099L249.587 11.6699V11.1899C248.96 11.0432 248.433 10.8499 248.007 10.6099V9.84985H254.027V10.6099C253.8 10.7565 253.54 10.8765 253.247 10.9699C252.967 11.0499 252.68 11.1232 252.387 11.1899V22.5099C252.693 22.5632 252.98 22.6432 253.247 22.7499C253.527 22.8432 253.787 22.9565 254.027 23.0899V23.8499H248.007V23.0899C248.193 22.9965 248.413 22.8965 248.667 22.7899C248.933 22.6699 249.213 22.5765 249.507 22.5099V14.9299L249.707 13.3499L248.807 14.9299L243.687 22.0699V22.5099C243.993 22.5765 244.28 22.6632 244.547 22.7699C244.813 22.8765 245.053 22.9832 245.267 23.0899V23.8499ZM262.413 9.84985H267.773V10.6099C267.546 10.7565 267.286 10.8832 266.993 10.9899C266.699 11.0832 266.433 11.1499 266.193 11.1899L262.393 16.0099C262.699 16.4365 263.059 16.9232 263.473 17.4699C263.886 18.0032 264.326 18.5632 264.793 19.1499C265.259 19.7232 265.739 20.3099 266.233 20.9099C266.726 21.4965 267.206 22.0565 267.673 22.5899L268.633 23.1699V23.8499H265.153L264.353 23.2899C264.033 22.8899 263.693 22.4499 263.333 21.9699C262.986 21.4765 262.639 20.9699 262.293 20.4499C261.946 19.9165 261.606 19.3832 261.273 18.8499C260.939 18.3165 260.626 17.7965 260.333 17.2899H259.473V22.5099C259.766 22.5632 260.033 22.6432 260.273 22.7499C260.513 22.8565 260.719 22.9699 260.893 23.0899V23.8499H254.833V23.0899C255.099 22.9565 255.373 22.8432 255.653 22.7499C255.933 22.6432 256.206 22.5632 256.473 22.5099V11.1899C256.166 11.1499 255.866 11.0765 255.573 10.9699C255.293 10.8632 255.046 10.7432 254.833 10.6099V9.84985H260.893V10.6099C260.719 10.7165 260.506 10.8232 260.253 10.9299C260.013 11.0365 259.753 11.1232 259.473 11.1899V16.2699L260.653 15.9899L263.873 11.1899C263.606 11.1365 263.339 11.0565 263.073 10.9499C262.819 10.8299 262.599 10.7165 262.413 10.6099V9.84985Z" fill="white"/>
<path d="M85.8535 35.042H81.7402V46.4502H80.0615V35.042H75.957V33.6533H85.8535V35.042ZM89.9755 44.0684L92.1904 36.9404H93.9306L90.1074 47.918C89.5156 49.5 88.5751 50.291 87.2861 50.291L86.9785 50.2646L86.372 50.1504V48.832L86.8115 48.8672C87.3622 48.8672 87.79 48.7559 88.0947 48.5332C88.4052 48.3105 88.6601 47.9033 88.8593 47.3115L89.2197 46.3447L85.8271 36.9404H87.6025L89.9755 44.0684ZM103.423 41.8008C103.423 43.248 103.092 44.4141 102.43 45.2988C101.768 46.1836 100.871 46.626 99.7402 46.626C98.5859 46.626 97.6777 46.2598 97.0156 45.5273V50.1064H95.3896V36.9404H96.8749L96.954 37.9951C97.6161 37.1748 98.5361 36.7646 99.7138 36.7646C100.856 36.7646 101.759 37.1953 102.421 38.0566C103.089 38.918 103.423 40.1162 103.423 41.6514V41.8008ZM101.797 41.6162C101.797 40.5439 101.568 39.6973 101.111 39.0762C100.654 38.4551 100.027 38.1445 99.2304 38.1445C98.246 38.1445 97.5078 38.5811 97.0156 39.4541V43.998C97.5019 44.8652 98.246 45.2988 99.248 45.2988C100.027 45.2988 100.645 44.9912 101.102 44.376C101.565 43.7549 101.797 42.835 101.797 41.6162ZM111.368 46.4502C111.274 46.2627 111.198 45.9287 111.14 45.4482C110.384 46.2334 109.481 46.626 108.433 46.626C107.495 46.626 106.725 46.3623 106.121 45.835C105.523 45.3018 105.225 44.6279 105.225 43.8135C105.225 42.8232 105.6 42.0557 106.35 41.5107C107.105 40.96 108.166 40.6846 109.531 40.6846H111.113V39.9375C111.113 39.3691 110.943 38.918 110.603 38.584C110.264 38.2441 109.763 38.0742 109.101 38.0742C108.52 38.0742 108.034 38.2207 107.642 38.5137C107.249 38.8066 107.053 39.1611 107.053 39.5771H105.418C105.418 39.1025 105.585 38.6455 105.919 38.2061C106.259 37.7607 106.716 37.4092 107.29 37.1514C107.87 36.8936 108.506 36.7646 109.197 36.7646C110.293 36.7646 111.151 37.04 111.772 37.5908C112.393 38.1357 112.716 38.8887 112.739 39.8496V44.2266C112.739 45.0996 112.851 45.7939 113.073 46.3096V46.4502H111.368ZM108.67 45.2109C109.18 45.2109 109.663 45.0791 110.12 44.8154C110.577 44.5518 110.908 44.209 111.113 43.7871V41.8359H109.839C107.847 41.8359 106.851 42.4189 106.851 43.585C106.851 44.0947 107.02 44.4932 107.36 44.7803C107.7 45.0674 108.137 45.2109 108.67 45.2109ZM121.432 38.2852H117.046V46.4502H115.411V36.9404H121.432V38.2852ZM126.617 46.626C125.328 46.626 124.279 46.2041 123.471 45.3604C122.662 44.5107 122.258 43.377 122.258 41.959V41.6602C122.258 40.7168 122.436 39.876 122.794 39.1377C123.157 38.3936 123.661 37.8135 124.306 37.3975C124.956 36.9756 125.659 36.7646 126.415 36.7646C127.651 36.7646 128.612 37.1719 129.298 37.9863C129.983 38.8008 130.326 39.9668 130.326 41.4844V42.1611H123.884C123.907 43.0986 124.18 43.8574 124.701 44.4375C125.228 45.0117 125.896 45.2988 126.705 45.2988C127.279 45.2988 127.766 45.1816 128.164 44.9473C128.562 44.7129 128.911 44.4023 129.21 44.0156L130.203 44.7891C129.406 46.0137 128.211 46.626 126.617 46.626ZM126.415 38.1006C125.759 38.1006 125.208 38.3408 124.763 38.8213C124.317 39.2959 124.042 39.9639 123.936 40.8252H128.7V40.7021C128.653 39.876 128.431 39.2373 128.032 38.7861C127.634 38.3291 127.095 38.1006 126.415 38.1006ZM139.985 46.4502H138.359V42.3896H133.991V46.4502H132.356V36.9404H133.991V41.0625H138.359V36.9404H139.985V46.4502ZM149.671 38.2588H146.48V46.4502H144.854V38.2588H141.726V36.9404H149.671V38.2588ZM154.364 45.2988C154.944 45.2988 155.451 45.123 155.885 44.7715C156.318 44.4199 156.559 43.9805 156.605 43.4531H158.143C158.114 43.998 157.927 44.5166 157.581 45.0088C157.235 45.501 156.772 45.8936 156.192 46.1865C155.618 46.4795 155.009 46.626 154.364 46.626C153.069 46.626 152.038 46.1953 151.27 45.334C150.509 44.4668 150.128 43.2832 150.128 41.7832V41.5107C150.128 40.585 150.298 39.7617 150.638 39.041C150.977 38.3203 151.464 37.7607 152.097 37.3623C152.735 36.9639 153.488 36.7646 154.355 36.7646C155.422 36.7646 156.307 37.084 157.01 37.7227C157.719 38.3613 158.097 39.1904 158.143 40.21H156.605C156.559 39.5947 156.324 39.0908 155.902 38.6982C155.486 38.2998 154.971 38.1006 154.355 38.1006C153.529 38.1006 152.888 38.3994 152.431 38.9971C151.979 39.5889 151.754 40.4473 151.754 41.5723V41.8799C151.754 42.9756 151.979 43.8193 152.431 44.4111C152.882 45.0029 153.526 45.2988 154.364 45.2988ZM167.038 38.2588H163.848V46.4502H162.222V38.2588H159.093V36.9404H167.038V38.2588ZM168.769 46.4502V36.9404H172.478C173.744 36.9404 174.714 37.1631 175.388 37.6084C176.067 38.0479 176.407 38.6953 176.407 39.5508C176.407 39.9902 176.275 40.3887 176.012 40.7461C175.748 41.0977 175.358 41.3672 174.843 41.5547C175.417 41.6895 175.877 41.9531 176.223 42.3457C176.574 42.7383 176.75 43.207 176.75 43.752C176.75 44.625 176.428 45.293 175.783 45.7559C175.144 46.2188 174.239 46.4502 173.067 46.4502H168.769ZM170.395 42.2754V45.1406H173.085C173.765 45.1406 174.271 45.0146 174.605 44.7627C174.945 44.5107 175.115 44.1562 175.115 43.6992C175.115 42.75 174.418 42.2754 173.023 42.2754H170.395ZM170.395 40.9746H172.496C174.019 40.9746 174.781 40.5293 174.781 39.6387C174.781 38.748 174.06 38.2881 172.619 38.2588H170.395V40.9746ZM178.473 41.6074C178.473 40.6758 178.654 39.8379 179.018 39.0938C179.387 38.3496 179.896 37.7754 180.547 37.3711C181.203 36.9668 181.95 36.7646 182.788 36.7646C184.083 36.7646 185.129 37.2129 185.926 38.1094C186.728 39.0059 187.13 40.1982 187.13 41.6865V41.8008C187.13 42.7266 186.951 43.5586 186.594 44.2969C186.242 45.0293 185.735 45.6006 185.073 46.0107C184.417 46.4209 183.661 46.626 182.806 46.626C181.517 46.626 180.471 46.1777 179.668 45.2812C178.871 44.3848 178.473 43.1982 178.473 41.7217V41.6074ZM180.107 41.8008C180.107 42.8555 180.351 43.7021 180.837 44.3408C181.329 44.9795 181.985 45.2988 182.806 45.2988C183.632 45.2988 184.288 44.9766 184.774 44.332C185.261 43.6816 185.504 42.7734 185.504 41.6074C185.504 40.5645 185.255 39.7207 184.757 39.0762C184.265 38.4258 183.608 38.1006 182.788 38.1006C181.985 38.1006 181.338 38.4199 180.846 39.0586C180.353 39.6973 180.107 40.6113 180.107 41.8008Z" fill="white"/>
<path d="M59.9211 28.5C59.9211 43.9369 46.6471 56.5 30.2105 56.5C13.774 56.5 0.5 43.9369 0.5 28.5C0.5 13.0631 13.774 0.5 30.2105 0.5C46.6471 0.5 59.9211 13.0631 59.9211 28.5Z" stroke="white"/>
<path d="M63.6514 10.0086L61.5055 7.05629L59.7028 5.58248L59.6861 4.37729L58.8312 3.7998L57.7585 5.95285L56.1371 4.96104L55.5759 5.49923L56.2066 6.69218L46.8972 15.0653L32.2361 21.8038L27.838 22.722L26.8033 23.2222L24.0715 26.5533L22.9371 30.1591L22.6707 32.1524L23.259 33.3423L23.3212 32.9077L24.369 29.3119L23.369 36.5734L22.2348 39.8464L20.1404 49.8098H22.042L21.4671 48.9083L22.4659 44.148L26.2374 37.043L25.5438 39.7139L28.4905 49.8098H30.4945L29.6564 48.8036L28.2506 44.8478L27.6567 38.9069L29.8165 34.2138L31.1102 33.023L37.1036 33.0314L38.1638 34.0284L36.2256 47.6394L36.303 49.8098H38.2102L37.5069 48.8132L37.7692 43.6308L40.695 34.1441L41.0542 34.1465L47.4755 49.8098H49.4034L48.424 48.8661L46.6783 44.4121L43.9414 33.1743L44.6669 27.409L44.3116 25.8006L44.6457 24.669L57.1031 11.3259L59.0009 10.9763L63.7933 12.6214L64.1337 11.3468L63.6514 10.0086Z" fill="white"/>
</svg>
